
<svg width="29" height="32" viewBox="0 0 29 32" fill="none" xmlns="http://www.w3.org/2000/svg">
<path fill-rule="evenodd" clip-rule="evenodd" d="M6.15019 3.16191C5.89655 3.1613 5.65205 3.19304 5.41972 3.25338C5.10122 2.47726 4.68052 1.78096 4.20203 1.25194C3.38989 0.354033 2.10903 0 0.335938 0V3.1579C1.4191 3.1579 2.0424 3.33018 2.18235 3.48491C2.72214 4.0817 3.19219 5.29431 3.19219 6.31579L3.20654 6.53909L4.60592 17.3692C2.26441 17.5035 0.45047 19.5139 0.337692 22.027L0.335938 23.6842C0.47421 26.2799 2.28212 28.2766 4.53925 28.4185L4.86346 28.4191C5.45111 30.2599 7.03857 31.579 8.90469 31.579C10.7701 31.579 12.3571 30.2608 12.9453 28.4211H16.2891C16.8773 30.2608 18.4642 31.579 20.3297 31.579C22.6959 31.579 24.6141 29.4582 24.6141 26.8421C24.6141 24.226 22.6959 22.1053 20.3297 22.1053C18.4642 22.1053 16.8773 23.4234 16.2891 25.2632H12.9453C12.3571 23.4234 10.7701 22.1053 8.90469 22.1053C7.03925 22.1053 5.45226 23.4234 4.8641 25.2632H4.62031C3.89198 25.2148 3.23865 24.4933 3.18963 23.5897L3.19219 22.1053C3.2307 21.2863 3.87956 20.5689 4.69108 20.5244L7.5104 20.5252L7.53083 20.5263H21.9247L22.1355 20.4524C23.2183 20.0725 24.0852 19.171 24.4956 18.004L24.646 17.6748L25.1349 16.604C25.6406 15.4957 26.1463 14.3854 26.6391 13.3007C27.8462 10.6438 28.6054 8.95526 28.7735 8.54062C29.6369 6.41124 27.8879 4.77231 26.1003 4.73741L6.15019 3.16191ZM21.4287 17.3683H7.63787C7.54617 17.3401 7.47629 17.2543 7.46261 17.1473L6.06319 6.31685L25.8902 7.88663C25.5432 8.66883 24.9126 10.0659 24.087 11.8832L24.0663 11.9287C23.595 12.966 23.09 14.0747 22.5849 15.1816L22.0967 16.251L21.9116 16.656L21.842 16.835C21.7674 17.0648 21.6193 17.2536 21.4287 17.3683ZM20.3299 28.4208C21.1187 28.4208 21.7581 27.7139 21.7581 26.8418C21.7581 25.9698 21.1187 25.2629 20.3299 25.2629C19.5411 25.2629 18.9017 25.9698 18.9017 26.8418C18.9017 27.7139 19.5411 28.4208 20.3299 28.4208ZM10.3332 26.8418C10.3332 27.7139 9.69374 28.4208 8.90495 28.4208C8.11617 28.4208 7.47673 27.7139 7.47673 26.8418C7.47673 25.9698 8.11617 25.2629 8.90495 25.2629C9.69374 25.2629 10.3332 25.9698 10.3332 26.8418Z" fill="white"/>
</svg>
