<svg width="30" height="32" viewBox="0 0 30 32" fill="none" xmlns="http://www.w3.org/2000/svg">
<path fill-rule="evenodd" clip-rule="evenodd" d="M15.2074 32C7.29185 32 0.875 24.8366 0.875 16C0.875 7.16344 7.29185 0 15.2074 0C23.123 0 29.5399 7.16344 29.5399 16C29.5399 24.8366 23.123 32 15.2074 32ZM24.8497 23.4547C26.1648 21.3392 26.9354 18.7702 26.9354 16.0002C26.9354 8.77026 21.6853 2.90926 15.2089 2.90926C8.73252 2.90926 3.48237 8.77026 3.48237 16.0002C3.48237 18.7693 4.25257 21.3377 5.56687 23.4528C7.0247 21.3038 10.438 20.374 15.123 20.363C12.2461 20.3189 9.99625 18.0277 9.99625 13.0909C9.99625 9.82658 12.0537 7.27275 15.208 7.27275C18.3536 7.27275 20.4198 10.0678 20.4198 13.3818C20.4198 18.1051 18.1437 20.3197 15.2935 20.363C19.9793 20.3742 23.3928 21.3045 24.8497 23.4547ZM22.9797 25.8043C22.6 24.2725 19.8601 23.272 15.2077 23.272C10.5572 23.272 7.81768 24.2717 7.43607 25.8023C9.50527 27.8487 12.2271 29.0911 15.2089 29.0911C18.1897 29.0911 20.9108 27.8495 22.9797 25.8043ZM12.6015 13.0911C12.6015 16.3918 13.6676 17.4548 15.2075 17.4548C16.742 17.4548 17.8134 16.4342 17.8134 13.382C17.8134 11.5644 16.7914 10.182 15.2075 10.182C13.5576 10.182 12.6015 11.3687 12.6015 13.0911Z" fill="white"/>
</svg>
