<svg width="29" height="32" viewBox="0 0 29 32" fill="none" xmlns="http://www.w3.org/2000/svg">
<path fill-rule="evenodd" clip-rule="evenodd" d="M11.6364 25.6386C5.20978 25.6386 0 19.8992 0 12.8193C0 5.7394 5.20978 0 11.6364 0C18.063 0 23.2728 5.7394 23.2728 12.8193C23.2728 15.7812 22.3609 18.5085 20.8297 20.679L28.6666 29.3126L26.6095 31.5787L18.7729 22.9455C16.8023 24.6334 14.3259 25.6386 11.6364 25.6386ZM20.3651 12.8194C20.3651 18.1293 16.4578 22.4338 11.6378 22.4338C6.81791 22.4338 2.91058 18.1293 2.91058 12.8194C2.91058 7.50942 6.81791 3.20487 11.6378 3.20487C16.4578 3.20487 20.3651 7.50942 20.3651 12.8194Z" fill="white"/>
</svg>
